<svg width="1440" height="237" viewBox="0 0 1440 237" fill="none" xmlns="http://www.w3.org/2000/svg">
<path d="M266.374 37.7091C151.96 20.6697 0 136.749 0 136.749V236.999H1994V46.5838C1994 46.5838 1926.2 110.571 1868.08 115.987C1779.92 124.205 1806.96 -6.42395 1718.63 0.314659C1632.04 6.92072 1615.66 125.36 1529.75 136.749C1427.32 150.328 1418.52 61.0227 1318.5 37.71C1155.82 -0.209015 1084.6 139.888 916.05 136.749C808.034 134.738 757.292 64.4754 649.676 72.6843C567.65 78.9413 509.764 154.322 427.582 149.823C357.108 145.965 335.95 48.0708 266.374 37.7091Z" fill="#FFF3D1"/>
</svg>
